<svg width="1000" height="290" xmlns="http://www.w3.org/2000/svg">
<rect width="1000" height="290" fill="white"/>
<text x="10" y="20" font-family="monospace" font-size="14">Transaction History Visualization</text>
<line x1="150" y1="80" x2="640" y2="80" stroke="black" stroke-width="2"/>
<line x1="150" y1="65" x2="150" y2="95" stroke="black" stroke-width="2"/>
<line x1="640" y1="65" x2="640" y2="95" stroke="black" stroke-width="2"/>
<text x="100" y="85" font-family="Arial, sans-serif" font-size="16" font-weight="bold">T0</text>
<circle cx="290" cy="80" r="6" fill="red"/>
<text x="270" y="60" font-family="Arial, sans-serif" font-size="14" fill="red">W(k6)</text>
<circle cx="430" cy="80" r="6" fill="red"/>
<text x="410" y="60" font-family="Arial, sans-serif" font-size="14" fill="red">R(k3)</text>
<line x1="80" y1="160" x2="850" y2="160" stroke="black" stroke-width="2"/>
<line x1="80" y1="145" x2="80" y2="175" stroke="black" stroke-width="2"/>
<line x1="850" y1="145" x2="850" y2="175" stroke="black" stroke-width="2"/>
<text x="30" y="165" font-family="Arial, sans-serif" font-size="16" font-weight="bold">T1</text>
<circle cx="220" cy="160" r="6" fill="red"/>
<text x="200" y="140" font-family="Arial, sans-serif" font-size="14" fill="red">R(k1)</text>
<circle cx="360" cy="160" r="6" fill="red"/>
<text x="340" y="140" font-family="Arial, sans-serif" font-size="14" fill="red">W(k3)</text>
<circle cx="500" cy="160" r="6" fill="red"/>
<text x="480" y="140" font-family="Arial, sans-serif" font-size="14" fill="red">W(k2)</text>
<circle cx="570" cy="160" r="6" fill="red"/>
<text x="550" y="140" font-family="Arial, sans-serif" font-size="14" fill="red">W(k4)</text>
<circle cx="710" cy="160" r="6" fill="red"/>
<text x="690" y="140" font-family="Arial, sans-serif" font-size="14" fill="red">R(k5)</text>
<circle cx="780" cy="160" r="6" fill="red"/>
<text x="760" y="140" font-family="Arial, sans-serif" font-size="14" fill="red">R(k6)</text>
</svg>